<svg width="25" height="25" viewBox="0 0 25 25" fill="none" xmlns="http://www.w3.org/2000/svg">
<g clip-path="url(#clip0_51_1238)">
<path d="M8.86061 1.28943C6.46264 2.12131 4.39463 3.70024 2.96035 5.79431C1.52606 7.88838 0.801099 10.3872 0.891944 12.9237C0.98279 15.4603 1.88466 17.9008 3.46507 19.8869C5.04549 21.873 7.22115 23.3 9.67249 23.9582C11.6598 24.471 13.742 24.4935 15.74 24.0238C17.55 23.6173 19.2233 22.7476 20.5962 21.5001C22.0251 20.162 23.0623 18.4597 23.5962 16.5763C24.1766 14.5282 24.2799 12.3743 23.8981 10.2801H12.7381V14.9094H19.2012C19.0721 15.6478 18.7953 16.3525 18.3874 16.9814C17.9795 17.6102 17.449 18.1504 16.8275 18.5694C16.0383 19.0915 15.1486 19.4428 14.2156 19.6007C13.2799 19.7747 12.3201 19.7747 11.3844 19.6007C10.436 19.4046 9.5388 19.0132 8.74999 18.4513C7.48277 17.5543 6.53126 16.2799 6.03124 14.8101C5.52277 13.3127 5.52277 11.6893 6.03124 10.1919C6.38716 9.14234 6.97555 8.18669 7.75249 7.39631C8.6416 6.47521 9.76724 5.8168 11.0059 5.49333C12.2446 5.16985 13.5484 5.1938 14.7744 5.56256C15.7321 5.85654 16.6078 6.37019 17.3319 7.06256C18.0606 6.33756 18.7881 5.61068 19.5144 4.88193C19.8894 4.49006 20.2981 4.11693 20.6675 3.71568C19.5623 2.6872 18.265 1.88691 16.85 1.36068C14.2732 0.425038 11.4537 0.399894 8.86061 1.28943Z" fill="white"/>
<path d="M8.86061 1.28937C11.4535 0.399224 14.273 0.423707 16.85 1.35874C18.2653 1.88855 19.562 2.69269 20.6656 3.72499C20.2906 4.12624 19.895 4.50124 19.5125 4.89124C18.785 5.61749 18.0581 6.34124 17.3319 7.06249C16.6078 6.37012 15.7321 5.85648 14.7744 5.56249C13.5488 5.19244 12.245 5.16711 11.006 5.48926C9.76702 5.81141 8.6407 6.46861 7.75061 7.38874C6.97367 8.17912 6.38529 9.13477 6.02936 10.1844L2.14249 7.17499C3.53375 4.41604 5.94264 2.30566 8.86061 1.28937Z" fill="#E33629"/>
<path d="M1.11125 10.1561C1.32016 9.12067 1.66701 8.11798 2.1425 7.1748L6.02937 10.1917C5.5209 11.6891 5.5209 13.3124 6.02937 14.8098C4.73437 15.8098 3.43875 16.8148 2.1425 17.8248C0.952156 15.4554 0.589122 12.7557 1.11125 10.1561Z" fill="#F8BD00"/>
<path d="M12.7381 10.2783H23.8981C24.2799 12.3726 24.1766 14.5264 23.5963 16.5746C23.0623 18.458 22.0252 20.1602 20.5963 21.4983C19.3419 20.5196 18.0819 19.5483 16.8275 18.5696C17.4494 18.1501 17.9802 17.6094 18.3881 16.9798C18.796 16.3503 19.0726 15.6448 19.2013 14.9058H12.7381C12.7363 13.3646 12.7381 11.8214 12.7381 10.2783Z" fill="#587DBD"/>
<path d="M2.14062 17.8251C3.43687 16.8251 4.7325 15.8201 6.0275 14.8101C6.52851 16.2804 7.48138 17.5549 8.75 18.4513C9.54127 19.0106 10.4404 19.3988 11.39 19.5913C12.3257 19.7653 13.2855 19.7653 14.2213 19.5913C15.1542 19.4334 16.0439 19.0821 16.8331 18.5601C18.0875 19.5388 19.3475 20.5101 20.6019 21.4888C19.2292 22.737 17.5558 23.6073 15.7456 24.0144C13.7476 24.4841 11.6655 24.4616 9.67813 23.9488C8.10632 23.5291 6.63814 22.7893 5.36563 21.7757C4.01874 20.7063 2.91867 19.3588 2.14062 17.8251Z" fill="#319F43"/>
</g>
<defs>
<clipPath id="clip0_51_1238">
<rect width="24" height="24" fill="white" transform="translate(0.5 0.5)"/>
</clipPath>
</defs>
</svg>
