<svg width="36" height="37" viewBox="0 0 36 37" fill="none" xmlns="http://www.w3.org/2000/svg">
<path d="M6 27.5H30C30.825 27.5 31.5 26.825 31.5 26C31.5 25.175 30.825 24.5 30 24.5H6C5.175 24.5 4.5 25.175 4.5 26C4.5 26.825 5.175 27.5 6 27.5ZM6 20H30C30.825 20 31.5 19.325 31.5 18.5C31.5 17.675 30.825 17 30 17H6C5.175 17 4.5 17.675 4.5 18.5C4.5 19.325 5.175 20 6 20ZM4.5 11C4.5 11.825 5.175 12.5 6 12.5H30C30.825 12.5 31.5 11.825 31.5 11C31.5 10.175 30.825 9.5 30 9.5H6C5.175 9.5 4.5 10.175 4.5 11Z" fill="white"/>
</svg>
