<svg width="25" height="22" viewBox="0 0 25 22" fill="none" xmlns="http://www.w3.org/2000/svg">
<path d="M0.500005 2.75C0.500005 2.15326 0.737057 1.58097 1.15901 1.15901C1.58097 0.737053 2.15327 0.5 2.75 0.5H19.25C19.8467 0.5 20.419 0.737053 20.841 1.15901C21.263 1.58097 21.5 2.15326 21.5 2.75V18.542C21.5 18.992 21.425 19.523 21.143 20H22.25C22.4489 20 22.6397 19.921 22.7803 19.7803C22.921 19.6397 23 19.4489 23 19.25V5.75C23 5.55109 23.079 5.36032 23.2197 5.21967C23.3603 5.07902 23.5511 5 23.75 5C23.9489 5 24.1397 5.07902 24.2803 5.21967C24.421 5.36032 24.5 5.55109 24.5 5.75V19.25C24.5 19.8467 24.263 20.419 23.841 20.841C23.419 21.2629 22.8467 21.5 22.25 21.5H2.7455C2.45024 21.5 2.15788 21.4418 1.88515 21.3286C1.61242 21.2155 1.36468 21.0497 1.1561 20.8407C0.94753 20.6317 0.782222 20.3837 0.66964 20.1107C0.557058 19.8377 0.499413 19.5453 0.500005 19.25V2.75ZM18.5 20C19.055 20 19.481 19.6835 19.7795 19.3385C19.9175 19.1795 20 18.92 20 18.542V2.75C20 2.55109 19.921 2.36032 19.7803 2.21967C19.6397 2.07902 19.4489 2 19.25 2H2.75C2.55109 2 2.36033 2.07902 2.21967 2.21967C2.07902 2.36032 2 2.55109 2 2.75V19.25C2 19.667 2.3345 20 2.7455 20H18.5Z" fill="white"/>
<path d="M3.5 3.5H18.5V6.5H3.5V3.5ZM3.5 8H9.5V12.5H3.5V8ZM3.5 14H9.5V15.5H3.5V14ZM3.5 17H9.5V18.5H3.5V17ZM11 8H14V9.5H11V8ZM15.5 8H18.5V9.5H15.5V8ZM11 11H14V12.5H11V11ZM15.5 11H18.5V12.5H15.5V11ZM11 14H14V15.5H11V14ZM15.5 14H18.5V15.5H15.5V14ZM11 17H14V18.5H11V17ZM15.5 17H18.5V18.5H15.5V17Z" fill="white"/>
</svg>
