<svg width="41" height="39" viewBox="0 0 41 39" fill="none" xmlns="http://www.w3.org/2000/svg">
<rect y="0.5" width="41" height="38" rx="12" fill="#262626"/>
<path opacity="0.6" fill-rule="evenodd" clip-rule="evenodd" d="M18.0156 23.0896C19.4196 24.2113 21.1999 24.753 22.9907 24.6032C24.7816 24.4534 26.4471 23.6235 27.6453 22.2841C28.8434 20.9446 29.4832 19.1972 29.4332 17.4008C29.3832 15.6044 28.6472 13.8953 27.3765 12.6245C26.1057 11.3538 24.3966 10.6178 22.6002 10.5678C20.8038 10.5179 19.0564 11.1576 17.717 12.3558C16.3775 13.5539 15.5477 15.2194 15.3979 17.0103C15.2481 18.8011 15.7897 20.5814 16.9115 21.9854L11.5406 27.3552C11.4639 27.4267 11.4023 27.513 11.3596 27.6088C11.3169 27.7046 11.2939 27.8081 11.2921 27.913C11.2902 28.0179 11.3095 28.1221 11.3488 28.2193C11.3881 28.3166 11.4466 28.405 11.5208 28.4792C11.595 28.5534 11.6834 28.6119 11.7806 28.6511C11.8779 28.6904 11.9821 28.7097 12.087 28.7079C12.1919 28.706 12.2954 28.6831 12.3912 28.6404C12.487 28.5977 12.5733 28.5361 12.6448 28.4594L18.0156 23.0896ZM26.2719 21.4625C27.0364 20.6979 27.5571 19.7238 27.7682 18.6633C27.9793 17.6028 27.8713 16.5036 27.4578 15.5045C27.0443 14.5054 26.344 13.6512 25.4452 13.0501C24.5464 12.4489 23.4896 12.1277 22.4084 12.1269C21.3271 12.1262 20.2699 12.446 19.3703 13.046C18.4707 13.646 17.7692 14.4991 17.3544 15.4977C16.9396 16.4962 16.8301 17.5953 17.0397 18.6561C17.2494 19.7168 17.7688 20.6916 18.5323 21.4573L18.5375 21.4625L18.5427 21.4666C19.5687 22.4902 20.9589 23.0647 22.4082 23.0639C23.8574 23.0631 25.247 22.4871 26.2719 21.4625Z" fill="white"/>
</svg>
